<svg width="510" height="54" viewBox="0 0 510 54" fill="none" xmlns="http://www.w3.org/2000/svg">
<path d="M35.04 6.016L22.848 29.68V40H12.192V29.68L0 6.016H12.192L17.616 18.064L23.04 6.016H35.04ZM53.2065 40.336C50.4865 40.336 48.0385 39.776 45.8625 38.656C43.6865 37.536 41.9745 35.936 40.7265 33.856C39.5105 31.744 38.9025 29.28 38.9025 26.464C38.9025 23.648 39.5105 21.2 40.7265 19.12C41.9745 17.008 43.6865 15.392 45.8625 14.272C48.0385 13.152 50.4865 12.592 53.2065 12.592C55.9265 12.592 58.3745 13.152 60.5505 14.272C62.7265 15.392 64.4225 17.008 65.6385 19.12C66.8865 21.2 67.5105 23.648 67.5105 26.464C67.5105 29.28 66.8865 31.744 65.6385 33.856C64.4225 35.936 62.7265 37.536 60.5505 38.656C58.3745 39.776 55.9265 40.336 53.2065 40.336ZM53.2065 31.12C54.1985 31.12 55.0305 30.736 55.7025 29.968C56.3745 29.168 56.7105 28 56.7105 26.464C56.7105 24.928 56.3745 23.776 55.7025 23.008C55.0305 22.208 54.1985 21.808 53.2065 21.808C52.2145 21.808 51.3825 22.208 50.7105 23.008C50.0385 23.776 49.7025 24.928 49.7025 26.464C49.7025 28 50.0225 29.168 50.6625 29.968C51.3345 30.736 52.1825 31.12 53.2065 31.12ZM102.394 12.928V40H91.7381V35.872C90.9061 37.152 89.7861 38.192 88.3781 38.992C87.0021 39.792 85.3541 40.192 83.4341 40.192C80.3301 40.192 77.8981 39.152 76.1381 37.072C74.4101 34.992 73.5461 32.176 73.5461 28.624V12.928H84.1541V27.28C84.1541 28.56 84.4901 29.584 85.1621 30.352C85.8661 31.088 86.7941 31.456 87.9461 31.456C89.1301 31.456 90.0581 31.088 90.7301 30.352C91.4021 29.584 91.7381 28.56 91.7381 27.28V12.928H102.394ZM129.047 12.736C132.151 12.736 134.567 13.776 136.295 15.856C138.055 17.936 138.935 20.752 138.935 24.304V40H128.327V25.648C128.327 24.368 127.975 23.36 127.271 22.624C126.599 21.856 125.687 21.472 124.535 21.472C123.351 21.472 122.423 21.856 121.751 22.624C121.079 23.36 120.743 24.368 120.743 25.648V40H110.087V12.928H120.743V17.056C121.575 15.776 122.679 14.736 124.055 13.936C125.463 13.136 127.127 12.736 129.047 12.736ZM156.18 12.592C157.94 12.592 159.46 12.96 160.74 13.696C162.02 14.4 162.996 15.376 163.668 16.624V12.928H174.276V39.52C174.276 42.048 173.812 44.352 172.884 46.432C171.956 48.512 170.452 50.176 168.372 51.424C166.324 52.672 163.684 53.296 160.452 53.296C156.1 53.296 152.644 52.272 150.084 50.224C147.556 48.208 146.116 45.456 145.764 41.968H156.228C156.516 43.376 157.668 44.08 159.684 44.08C160.932 44.08 161.908 43.76 162.612 43.12C163.316 42.48 163.668 41.28 163.668 39.52V36.304C162.996 37.552 162.02 38.544 160.74 39.28C159.46 39.984 157.94 40.336 156.18 40.336C154.068 40.336 152.164 39.792 150.468 38.704C148.772 37.584 147.428 35.984 146.436 33.904C145.476 31.792 144.996 29.312 144.996 26.464C144.996 23.616 145.476 21.152 146.436 19.072C147.428 16.96 148.772 15.36 150.468 14.272C152.164 13.152 154.068 12.592 156.18 12.592ZM163.668 26.464C163.668 25.024 163.3 23.904 162.564 23.104C161.828 22.304 160.884 21.904 159.732 21.904C158.58 21.904 157.636 22.304 156.9 23.104C156.164 23.904 155.796 25.024 155.796 26.464C155.796 27.904 156.164 29.024 156.9 29.824C157.636 30.624 158.58 31.024 159.732 31.024C160.884 31.024 161.828 30.624 162.564 29.824C163.3 29.024 163.668 27.904 163.668 26.464ZM184.725 6.016H195.285L189.621 20.176H182.613L184.725 6.016ZM215.009 40.336C212.449 40.336 210.177 39.92 208.193 39.088C206.241 38.256 204.689 37.104 203.537 35.632C202.385 34.16 201.729 32.496 201.569 30.64H211.793C211.921 31.44 212.257 32.032 212.801 32.416C213.377 32.8 214.097 32.992 214.961 32.992C215.505 32.992 215.937 32.88 216.257 32.656C216.577 32.4 216.737 32.096 216.737 31.744C216.737 31.136 216.401 30.704 215.729 30.448C215.057 30.192 213.921 29.904 212.321 29.584C210.369 29.2 208.753 28.784 207.473 28.336C206.225 27.888 205.121 27.12 204.161 26.032C203.233 24.944 202.769 23.44 202.769 21.52C202.769 19.856 203.201 18.352 204.065 17.008C204.961 15.632 206.273 14.56 208.001 13.792C209.729 12.992 211.825 12.592 214.289 12.592C217.937 12.592 220.785 13.488 222.833 15.28C224.913 17.072 226.161 19.408 226.577 22.288H217.121C216.961 21.552 216.625 20.992 216.113 20.608C215.601 20.192 214.913 19.984 214.049 19.984C213.505 19.984 213.089 20.096 212.801 20.32C212.513 20.512 212.369 20.816 212.369 21.232C212.369 21.776 212.705 22.192 213.377 22.48C214.049 22.736 215.121 23.008 216.593 23.296C218.545 23.68 220.193 24.112 221.537 24.592C222.881 25.072 224.049 25.904 225.041 27.088C226.033 28.24 226.529 29.84 226.529 31.888C226.529 33.488 226.065 34.928 225.137 36.208C224.209 37.488 222.865 38.496 221.105 39.232C219.377 39.968 217.345 40.336 215.009 40.336ZM268.674 6.016V14.464H255.33V19.168H264.93V27.184H255.33V40H244.674V6.016H268.674ZM273.724 26.464C273.724 23.616 274.204 21.152 275.164 19.072C276.156 16.96 277.5 15.36 279.196 14.272C280.892 13.152 282.796 12.592 284.908 12.592C286.668 12.592 288.188 12.96 289.468 13.696C290.748 14.4 291.724 15.376 292.396 16.624V12.928H303.004V40H292.396V36.304C291.724 37.552 290.748 38.544 289.468 39.28C288.188 39.984 286.668 40.336 284.908 40.336C282.796 40.336 280.892 39.792 279.196 38.704C277.5 37.584 276.156 35.984 275.164 33.904C274.204 31.792 273.724 29.312 273.724 26.464ZM292.396 26.464C292.396 25.024 292.028 23.904 291.292 23.104C290.556 22.304 289.612 21.904 288.46 21.904C287.308 21.904 286.364 22.304 285.628 23.104C284.892 23.904 284.524 25.024 284.524 26.464C284.524 27.904 284.892 29.024 285.628 29.824C286.364 30.624 287.308 31.024 288.46 31.024C289.612 31.024 290.556 30.624 291.292 29.824C292.028 29.024 292.396 27.904 292.396 26.464ZM324.397 29.872L328.717 12.928H340.045L331.021 40H317.725L308.701 12.928H320.029L324.397 29.872ZM358.616 40.336C355.896 40.336 353.448 39.776 351.272 38.656C349.096 37.536 347.384 35.936 346.136 33.856C344.92 31.744 344.312 29.28 344.312 26.464C344.312 23.648 344.92 21.2 346.136 19.12C347.384 17.008 349.096 15.392 351.272 14.272C353.448 13.152 355.896 12.592 358.616 12.592C361.336 12.592 363.784 13.152 365.96 14.272C368.136 15.392 369.832 17.008 371.048 19.12C372.296 21.2 372.92 23.648 372.92 26.464C372.92 29.28 372.296 31.744 371.048 33.856C369.832 35.936 368.136 37.536 365.96 38.656C363.784 39.776 361.336 40.336 358.616 40.336ZM358.616 31.12C359.608 31.12 360.44 30.736 361.112 29.968C361.784 29.168 362.12 28 362.12 26.464C362.12 24.928 361.784 23.776 361.112 23.008C360.44 22.208 359.608 21.808 358.616 21.808C357.624 21.808 356.792 22.208 356.12 23.008C355.448 23.776 355.112 24.928 355.112 26.464C355.112 28 355.432 29.168 356.072 29.968C356.744 30.736 357.592 31.12 358.616 31.12ZM407.803 12.928V40H397.147V35.872C396.315 37.152 395.195 38.192 393.787 38.992C392.411 39.792 390.763 40.192 388.843 40.192C385.739 40.192 383.307 39.152 381.547 37.072C379.819 34.992 378.955 32.176 378.955 28.624V12.928H389.563V27.28C389.563 28.56 389.899 29.584 390.571 30.352C391.275 31.088 392.203 31.456 393.355 31.456C394.539 31.456 395.467 31.088 396.139 30.352C396.811 29.584 397.147 28.56 397.147 27.28V12.928H407.803ZM426.152 17.92C427.24 16.352 428.568 15.104 430.136 14.176C431.704 13.216 433.336 12.736 435.032 12.736V24.112H432.008C429.992 24.112 428.504 24.464 427.544 25.168C426.616 25.872 426.152 27.12 426.152 28.912V40H415.496V12.928H426.152V17.92ZM446.159 10.768C444.303 10.768 442.815 10.272 441.695 9.28C440.575 8.288 440.015 7.04 440.015 5.536C440.015 4 440.575 2.736 441.695 1.744C442.815 0.719997 444.303 0.207997 446.159 0.207997C447.983 0.207997 449.455 0.719997 450.575 1.744C451.695 2.736 452.255 4 452.255 5.536C452.255 7.04 451.695 8.288 450.575 9.28C449.455 10.272 447.983 10.768 446.159 10.768ZM451.439 12.928V40H440.783V12.928H451.439ZM475.979 30.928V40H471.947C464.523 40 460.811 36.304 460.811 28.912V21.808H457.451V12.928H460.811V6.4H471.467V12.928H475.883V21.808H471.467V29.104C471.467 29.744 471.611 30.208 471.899 30.496C472.219 30.784 472.731 30.928 473.435 30.928H475.979ZM509.126 26.224C509.126 26.96 509.078 27.664 508.982 28.336H491.846C492.006 30.672 492.982 31.84 494.774 31.84C495.926 31.84 496.758 31.312 497.27 30.256H508.55C508.166 32.176 507.35 33.904 506.102 35.44C504.886 36.944 503.334 38.144 501.446 39.04C499.59 39.904 497.542 40.336 495.302 40.336C492.614 40.336 490.214 39.776 488.102 38.656C486.022 37.536 484.39 35.936 483.206 33.856C482.054 31.744 481.478 29.28 481.478 26.464C481.478 23.648 482.054 21.2 483.206 19.12C484.39 17.008 486.022 15.392 488.102 14.272C490.214 13.152 492.614 12.592 495.302 12.592C497.99 12.592 500.374 13.152 502.454 14.272C504.566 15.36 506.198 16.928 507.35 18.976C508.534 21.024 509.126 23.44 509.126 26.224ZM498.326 23.68C498.326 22.784 498.038 22.112 497.462 21.664C496.886 21.184 496.166 20.944 495.302 20.944C493.414 20.944 492.31 21.856 491.99 23.68H498.326Z" fill="black"/>
</svg>
